# xmcd
#
# Track frame offsets: 
#        150
#        12200
#        25605
#        38255
#        50757
#        62707
#        76430
#        89092
#        102622
#        116397
#        131380
#        144892
#        157982
#        172042
#        185905
#        198767
#        212247
#        227655
#        242787
#        256365
#        270290
#        286017
#
# Disc length: 4016 seconds
#
# Revision: 3
# Processed by: cddbd v1.5.2PL0 Copyright (c) Steve Scherf et al.
# Submitted via: ExactAudioCopy v1.0b1
#
DISCID=290fae16
DTITLE=Charley Jordan - Complete Recorded Works In Chronological Order
DTITLE=Vol. 1 (1930-1931)
DYEAR=1992
DGENRE=Blues
TTITLE0=Stack O' Dollars Blues
TTITLE1=Dollar Bill Blues
TTITLE2=Keep It Clean
TTITLE3=Big Four Blues
TTITLE4=Just a Spoonful
TTITLE5=Two Street Blues
TTITLE6=Raidin' Squad Blues
TTITLE7=Hunkie Tunkie Blues
TTITLE8=Running Mad Blues
TTITLE9=Gasoline Blues
TTITLE10=Sugar Man Blues - Part 1 (St. Louis Bessie, Vcl)
TTITLE11=Sugar Man Blues - Part 2 (St. Louis Bessie, Vcl)
TTITLE12=Lost Ship Blues
TTITLE13=Hungry Blues
TTITLE14=My "Lovin' Good" Blues
TTITLE15=Tough Times Blues
TTITLE16=Cheating Blues
TTITLE17=Starvation Blues
TTITLE18=Keep It Clean - No. 2
TTITLE19=You Run and Tell Your Daddy
TTITLE20=Tight Haired Mama Blues
TTITLE21=Days of the Weeks Blues
EXTD=
EXTT0=
EXTT1=
EXTT2=
EXTT3=
EXTT4=
EXTT5=
EXTT6=
EXTT7=
EXTT8=
EXTT9=
EXTT10=
EXTT11=
EXTT12=
EXTT13=
EXTT14=
EXTT15=
EXTT16=
EXTT17=
EXTT18=
EXTT19=
EXTT20=
EXTT21=
PLAYORDER=
